<?xml version="1.0" standalone="no"?>
<!DOCTYPE svg PUBLIC "-//W3C//DTD SVG 20010904//EN"
 "http://www.w3.org/TR/2001/REC-SVG-20010904/DTD/svg10.dtd">
<svg version="1.0" xmlns="http://www.w3.org/2000/svg"
 width="510.000000pt" height="510.000000pt" viewBox="0 0 510.000000 510.000000"
 preserveAspectRatio="xMidYMid meet">
<metadata>
Created by potrace 1.11, written by Peter Selinger 2001-2013
</metadata>
<g transform="translate(0.000000,510.000000) scale(0.100000,-0.100000)"
fill="#000000" stroke="none">
<path d="M480 4974 c-166 -45 -293 -165 -345 -325 l-24 -74 -1 -1977 c0 -1710
2 -1984 15 -2033 47 -182 196 -327 373 -364 38 -8 625 -11 2015 -11 1717 0
1970 2 2021 15 171 45 299 164 352 329 l23 71 1 1975 c0 2163 4 2026 -58 2150
-55 110 -185 211 -317 246 -41 11 -414 14 -2025 13 -1707 0 -1982 -2 -2030
-15z"/>
</g>
</svg>
